<?xml version="1.0" standalone="no"?>
<!DOCTYPE svg PUBLIC "-//W3C//DTD SVG 20010904//EN"
 "http://www.w3.org/TR/2001/REC-SVG-20010904/DTD/svg10.dtd">
<svg version="1.0" xmlns="http://www.w3.org/2000/svg"
 width="460.000000pt" height="460.000000pt" viewBox="0 0 460.000000 460.000000"
 preserveAspectRatio="xMidYMid meet">
<metadata>
Created by potrace 1.14, written by Peter Selinger 2001-2017
</metadata>
<g transform="translate(0.000000,460.000000) scale(0.100000,-0.100000)"
fill="#000000" stroke="none">
<path d="M0 2300 l0 -2300 316 0 316 0 -6 43 c-8 53 0 77 25 77 15 0 18 -5 15
-22 -3 -13 -8 -40 -11 -61 l-6 -37 701 0 c441 1 700 4 700 10 0 6 7 10 15 10
8 0 15 -4 15 -10 0 -5 5 -10 10 -10 6 0 10 15 10 33 0 22 3 28 9 18 7 -11 9
-11 14 0 3 8 8 0 12 -18 l7 -33 459 0 c452 0 459 0 459 20 0 11 -4 20 -10 20
-5 0 -10 15 -10 34 0 18 -7 50 -15 70 -21 50 -54 220 -43 224 4 2 8 10 8 17 0
14 127 111 135 103 3 -2 12 -103 20 -224 9 -120 18 -229 21 -242 l4 -22 461 0
460 0 -12 21 c-6 12 -19 24 -29 26 -10 3 -16 11 -14 18 3 7 1 16 -5 20 -6 3
-9 0 -5 -8 3 -8 1 -17 -3 -20 -10 -6 -67 102 -59 110 2 2 15 -11 28 -30 24
-35 43 -37 64 -8 10 13 14 10 28 -17 9 -18 19 -32 22 -32 2 0 0 9 -6 21 -13
24 -10 31 8 20 7 -4 14 -22 14 -40 l1 -32 18 28 c11 15 19 33 19 38 -1 6 -7
-1 -15 -15 -13 -24 -14 -24 -12 -3 2 38 26 35 73 -9 24 -22 45 -39 47 -37 1 2
13 18 27 34 l25 30 -31 -28 -30 -27 -22 29 c-13 18 -18 32 -12 36 6 4 9 1 8
-7 -3 -14 40 -20 57 -7 15 11 62 4 82 -12 9 -8 14 -9 12 -4 -3 6 2 18 13 27
10 10 18 15 18 10 0 -4 5 0 10 8 11 17 30 20 46 8 17 -12 75 -18 69 -7 -4 5
-1 9 5 9 6 0 16 11 22 25 18 40 30 29 13 -13 -34 -82 -40 -92 -56 -92 -9 0
-24 -10 -35 -22 -10 -12 -13 -18 -5 -13 10 5 12 4 7 -4 -4 -6 -11 -9 -16 -6
-4 3 -13 -1 -19 -9 -9 -11 3 -14 74 -15 l85 -2 0 166 0 165 -37 -1 c-28 -1
-31 -3 -13 -6 23 -5 23 -6 -10 -20 -33 -13 -170 -30 -159 -19 3 3 23 10 45 16
l39 10 -45 -5 c-42 -5 -44 -4 -25 10 14 11 16 18 8 23 -8 5 -4 16 13 35 13 16
24 24 24 18 0 -5 -7 -17 -16 -26 -9 -9 -13 -19 -10 -22 4 -4 32 18 62 48 46
44 58 51 65 39 6 -8 21 -33 34 -55 l24 -40 1 1631 c0 1480 -1 1633 -16 1645
-14 12 -14 14 2 26 10 7 15 16 11 19 -9 9 -37 -15 -37 -33 0 -8 -5 -11 -10 -8
-6 4 -8 11 -5 16 4 5 1 9 -4 9 -6 0 -11 -5 -11 -11 0 -6 -5 -9 -11 -7 -6 2
-13 24 -15 48 -6 70 -8 80 -20 88 -6 4 -14 21 -18 37 l-6 30 15 -25 c8 -14 15
-20 15 -15 0 6 7 2 14 -8 8 -10 19 -16 26 -15 7 2 15 -3 17 -11 4 -9 0 -11
-16 -6 -18 5 -21 2 -21 -24 0 -21 5 -31 15 -31 8 0 15 7 15 15 0 17 25 20 35
5 4 -6 11 -7 17 -4 6 4 5 10 -3 15 -12 7 -12 10 -1 18 15 9 13 42 -3 53 -6 5
-5 8 3 8 21 0 13 28 -10 33 l-23 4 23 2 c24 1 30 16 10 25 -10 5 -10 7 0 12 8
4 12 38 12 119 0 95 -3 114 -16 119 -15 6 -15 8 -2 24 8 9 16 34 17 55 2 35 1
38 -18 32 -12 -3 -21 -2 -21 3 0 6 6 12 12 14 7 3 2 7 -11 11 -21 5 -23 3 -18
-22 5 -23 1 -30 -20 -40 -20 -9 -29 -9 -42 1 -14 12 -15 11 -1 -6 12 -16 12
-20 -1 -30 -8 -6 -19 -20 -23 -31 -8 -18 -9 -17 -17 10 -11 38 -3 62 22 70 10
4 24 15 29 25 8 15 6 20 -11 25 -28 9 -46 -9 -29 -30 10 -13 9 -15 -7 -15 -10
0 -28 6 -39 14 -13 10 -25 11 -35 5 -11 -7 -10 -10 9 -15 24 -7 29 -20 10 -27
-7 -2 -10 -8 -6 -12 5 -5 17 0 28 10 20 19 29 8 9 -12 -8 -8 -8 -17 0 -31 17
-31 13 -38 -8 -16 -10 10 -17 21 -16 24 2 3 -35 5 -81 5 -58 0 -87 -4 -93 -13
-5 -9 -11 -5 -19 13 -6 14 -19 25 -27 25 -19 0 -12 38 11 56 8 6 14 19 14 28
0 9 5 16 10 16 6 0 10 5 10 11 0 8 -4 8 -15 -1 -19 -16 -35 -4 -36 28 -2 24
-2 25 -6 4 -3 -13 -10 -21 -16 -19 -17 5 -21 38 -7 47 19 12 -26 23 -47 12
-10 -5 -35 -13 -57 -16 -35 -7 -37 -8 -20 -22 18 -14 18 -14 -6 -12 -17 2 -25
-2 -25 -12 0 -16 -14 -30 -30 -30 -6 0 -6 3 1 8 16 11 -8 53 -26 42 -7 -4 -11
-14 -8 -22 4 -9 -1 -14 -13 -15 -10 -1 -19 4 -19 12 0 15 27 45 41 45 5 0 9 6
9 14 0 12 -7 13 -31 6 -20 -6 -39 -6 -50 1 -11 5 -19 6 -19 2 0 -4 -5 -1 -10
7 -11 17 -2 110 12 125 6 6 6 3 2 -9 -5 -14 -4 -17 4 -12 7 4 15 1 18 -8 8
-20 24 -21 24 -1 0 8 -4 15 -10 15 -5 0 -10 8 -10 18 1 15 2 15 16 -3 9 -12
18 -16 22 -10 4 6 25 11 46 12 22 2 43 8 46 13 4 6 14 8 23 4 9 -3 17 -1 17 4
0 6 17 19 37 29 50 23 72 53 38 53 -8 0 -15 -5 -15 -12 0 -9 -3 -9 -12 0 -9 9
-478 12 -2050 12 l-2038 0 0 -2300z m2533 2253 c-52 -79 -193 -176 -248 -171
l-30 3 39 39 c40 38 173 131 211 147 39 15 47 11 28 -18z m100 20 c-7 -2 -19
-2 -25 0 -7 3 -2 5 12 5 14 0 19 -2 13 -5z m134 1 c-3 -3 -12 -4 -19 -1 -8 3
-5 6 6 6 11 1 17 -2 13 -5z m34 -17 c-10 -9 -11 -8 -5 6 3 10 9 15 12 12 3 -3
0 -11 -7 -18z m94 -5 c-3 -3 -11 0 -18 7 -9 10 -8 11 6 5 10 -3 15 -9 12 -12z
m-48 -8 c-3 -3 -12 -4 -19 -1 -8 3 -5 6 6 6 11 1 17 -2 13 -5z m89 -21 c-7 -7
-26 7 -26 19 0 6 6 6 15 -2 9 -7 13 -15 11 -17z m-54 6 c2 -6 22 -12 43 -14
37 -2 105 -28 105 -41 0 -9 -73 8 -117 28 -41 18 -64 38 -44 38 5 0 11 -5 13
-11z m-206 -58 c90 -40 181 -162 197 -263 10 -68 -19 -42 -72 62 -43 84 -81
123 -145 151 -44 19 -58 20 -99 12 -26 -5 -50 -7 -52 -3 -2 3 8 21 22 39 24
30 29 33 67 27 22 -4 59 -15 82 -25z m163 -21 c43 -21 94 -77 85 -91 -3 -5 0
-9 5 -9 6 0 11 -12 11 -26 0 -16 4 -23 11 -18 8 4 9 -4 4 -27 -4 -22 -3 -29 3
-21 7 11 10 10 16 -3 9 -25 7 -65 -3 -65 -5 0 -7 9 -4 20 4 14 1 20 -7 18 -7
-2 -16 9 -21 25 -4 17 -3 27 3 27 6 0 4 8 -4 18 -15 17 -32 52 -30 63 0 3 -16
13 -36 22 -52 24 -97 61 -88 75 9 16 10 15 55 -8z m-211 -61 c12 -5 22 -11 22
-15 0 -11 -65 8 -80 23 -13 13 -12 14 10 8 14 -4 35 -11 48 -16z m-113 -54
c65 -27 122 -80 127 -117 7 -42 2 -55 -23 -61 -13 -4 -23 2 -30 16 -34 67
-148 137 -222 137 -22 0 -28 4 -23 16 3 9 6 20 6 26 0 15 116 3 165 -17z
m1355 -5 c0 -5 -7 -10 -15 -10 -8 0 -15 5 -15 10 0 6 7 10 15 10 8 0 15 -4 15
-10z m-1877 -72 c17 -22 18 -30 7 -43 -8 -10 -9 -15 -1 -15 17 0 13 -28 -6
-40 -16 -9 -15 -10 5 -5 16 5 22 2 22 -9 0 -8 -4 -17 -9 -20 -4 -3 -3 -27 4
-53 9 -35 9 -53 1 -65 -14 -22 -56 -24 -56 -2 0 8 4 13 9 9 6 -3 15 4 22 16 9
17 8 23 -2 30 -11 7 -11 11 -2 17 14 9 12 44 -4 55 -6 4 -15 28 -19 52 -3 25
-11 45 -16 45 -6 0 -8 -9 -5 -20 3 -10 -2 -27 -10 -37 -14 -17 -14 -17 -9 0 3
11 0 20 -9 23 -9 4 -15 19 -15 36 0 20 4 27 12 22 7 -5 9 -2 5 9 -14 36 48 32
76 -5z m464 8 c58 -32 60 -34 38 -51 -19 -16 -19 -16 3 -5 25 12 42 6 42 -15
0 -7 3 -15 8 -17 4 -1 19 -22 35 -45 15 -24 39 -61 53 -83 30 -45 49 -157 23
-132 -8 7 -14 16 -15 20 0 4 -10 29 -22 55 -12 27 -22 52 -22 57 0 4 -7 13
-16 21 -8 7 -13 21 -10 32 2 10 2 16 -1 13 -4 -3 -16 2 -27 13 -12 11 -39 29
-62 40 -22 12 -56 35 -75 52 -18 16 -44 32 -56 35 -13 4 -23 13 -23 21 0 13 9
15 49 10 28 -3 63 -13 78 -21z m1623 14 c0 -5 -4 -10 -10 -10 -5 0 -10 5 -10
10 0 6 5 10 10 10 6 0 10 -4 10 -10z m-2398 -15 c3 0 10 -4 15 -9 5 -6 2 -6
-6 -1 -11 6 -13 4 -8 -9 5 -12 3 -15 -6 -9 -6 4 -15 8 -19 8 -3 0 -10 4 -15 9
-5 6 -2 6 6 1 11 -6 13 -4 8 9 -5 12 -3 15 6 9 6 -4 15 -8 19 -8z m2485 -7
c-3 -8 -6 -5 -6 6 -1 11 2 17 5 13 3 -3 4 -12 1 -19z m-147 -2 c0 -3 -4 -8
-10 -11 -5 -3 -10 -1 -10 4 0 6 5 11 10 11 6 0 10 -2 10 -4z m-1941 -32 c15
-19 21 -41 21 -76 0 -27 -4 -47 -9 -44 -5 3 -12 -1 -15 -10 -4 -9 -2 -13 5 -8
12 7 3 -49 -12 -76 -7 -12 -9 -11 -10 5 -1 11 -1 29 0 41 1 11 -2 39 -7 62 -9
40 1 61 12 25 2 -10 4 -7 3 7 -2 14 -8 24 -15 23 -6 -2 -12 4 -12 13 0 9 5 12
13 8 8 -5 8 -2 -2 9 -7 9 -10 17 -6 17 4 0 2 7 -5 15 -10 12 -10 15 3 15 9 0
25 -12 36 -26z m2001 6 c0 -5 -5 -10 -11 -10 -5 0 -7 5 -4 10 3 6 8 10 11 10
2 0 4 -4 4 -10z m-2344 -16 c16 -13 16 -15 2 -10 -10 3 -18 0 -18 -6 0 -15
-13 -1 -16 17 -3 19 7 19 32 -1z m738 -76 c-3 -4 1 -5 9 -3 11 5 77 -55 77
-70 0 -11 -199 99 -205 113 -5 13 -3 13 11 1 16 -13 16 -12 5 9 -12 22 -9 22
47 -10 33 -18 58 -36 56 -40z m1530 55 c-14 -15 -38 -18 -29 -4 3 5 -3 11 -12
14 -10 2 -2 4 18 3 30 0 34 -2 23 -13z m-2097 -25 c-3 -8 -6 -5 -6 6 -1 11 2
17 5 13 3 -3 4 -12 1 -19z m1973 -8 c0 -5 -4 -10 -10 -10 -5 0 -10 5 -10 10 0
6 5 10 10 10 6 0 10 -4 10 -10z m296 -49 c3 -11 7 -11 19 -1 10 8 15 9 15 2 0
-16 -16 -23 -34 -16 -9 4 -16 17 -15 33 1 24 2 22 15 -18z m-2340 12 c-10 -11
-37 -12 -30 -2 3 5 12 9 21 9 9 0 13 -3 9 -7z m352 -15 c18 -18 15 -27 -8 -21
-11 3 -20 12 -20 19 0 17 12 18 28 2z m-531 -20 c-3 -8 -6 -5 -6 6 -1 11 2 17
5 13 3 -3 4 -12 1 -19z m197 -27 c-9 -10 -26 18 -18 30 5 9 9 8 14 -7 4 -10 6
-21 4 -23z m391 -17 c9 -19 15 -37 13 -40 -4 -3 -48 72 -48 83 0 13 20 -11 35
-43z m2035 27 c14 -26 13 -31 -6 -31 -8 0 -12 5 -9 10 3 6 3 15 -1 21 -4 7 -9
8 -13 1 -4 -6 -11 -4 -19 4 -11 12 -9 14 12 14 15 0 30 -8 36 -19z m293 9
c-14 -6 -23 -19 -24 -32 -1 -18 -2 -19 -6 -5 -6 22 14 47 36 46 11 0 9 -3 -6
-9z m-2878 -10 c3 -5 -1 -10 -9 -10 -9 0 -16 5 -16 10 0 6 4 10 9 10 6 0 13
-4 16 -10z m479 -13 c-2 -15 1 -16 14 -5 13 12 14 8 9 -27 -3 -22 -3 -32 -1
-22 3 9 10 17 15 17 6 0 7 -9 4 -20 -4 -11 -3 -20 2 -19 20 3 23 -2 9 -17 -9
-8 -16 -20 -16 -25 0 -11 22 -7 33 6 5 6 6 2 3 -8 -3 -10 -7 -28 -7 -40 -1
-17 -3 -15 -9 8 -5 21 -8 24 -10 10 -1 -15 -5 -10 -15 15 -7 19 -18 34 -25 32
-8 -2 -10 7 -5 30 5 26 4 30 -5 18 -9 -12 -11 -8 -7 18 3 27 0 36 -17 43 -19
8 -19 9 4 6 17 -1 25 -8 24 -20z m2158 -35 c-6 -2 -12 -11 -13 -20 0 -12 -3
-11 -12 6 -8 19 -8 25 4 33 12 7 12 9 -1 9 -13 0 -13 1 0 10 11 7 17 4 25 -12
7 -15 6 -23 -3 -26z m-2472 13 c4 2 15 -4 25 -15 19 -21 30 -76 16 -84 -4 -3
-7 6 -5 20 3 35 -6 56 -22 50 -13 -5 -35 23 -33 41 0 4 3 2 6 -5 2 -6 8 -10
13 -7z m-163 -17 c-3 -8 -6 -5 -6 6 -1 11 2 17 5 13 3 -3 4 -12 1 -19z m135
-23 c3 -13 1 -22 -3 -19 -9 5 -13 44 -5 44 2 0 6 -11 8 -25z m445 -7 c-3 -8
-6 -5 -6 6 -1 11 2 17 5 13 3 -3 4 -12 1 -19z m-220 -20 c-3 -8 -6 -5 -6 6 -1
11 2 17 5 13 3 -3 4 -12 1 -19z m2336 -37 c-4 -3 -11 -10 -16 -16 -5 -5 -5 0
-2 13 5 17 2 22 -13 22 -15 0 -19 5 -15 21 6 20 7 20 29 -7 13 -15 21 -30 17
-33z m-2380 19 c3 -11 1 -18 -3 -15 -5 3 -11 1 -15 -5 -8 -13 -25 -13 -25 1 0
5 5 7 11 4 6 -4 13 2 16 14 7 26 9 26 16 1z m283 11 c-3 -5 1 -11 9 -15 18 -7
20 -27 3 -23 -22 4 -38 31 -25 39 16 10 19 10 13 -1z m193 -32 c18 -24 27 -47
24 -57 -5 -14 -3 -15 7 -5 12 11 17 4 32 -35 47 -122 55 -190 43 -382 -6 -106
-15 -134 -36 -113 -14 14 -31 195 -23 239 13 71 -86 284 -132 284 -7 0 -18 9
-24 19 -13 24 3 71 24 71 24 0 28 -18 6 -25 -22 -7 -25 -22 -10 -45 8 -12 11
-11 16 8 5 16 12 21 24 17 22 -7 52 4 44 16 -3 5 -14 9 -25 9 -12 0 -19 7 -19
20 0 31 17 24 49 -21z m-619 -4 c0 -5 -5 -3 -10 5 -7 11 -9 6 -7 -18 2 -17 7
-35 10 -39 12 -12 7 -22 -8 -17 -15 6 -22 84 -8 97 7 8 23 -12 23 -28z m70 2
c0 -5 -4 -5 -10 -2 -5 3 -10 14 -10 23 0 15 2 15 10 2 5 -8 10 -19 10 -23z
m2539 16 c-1 -10 1 -27 5 -38 5 -11 10 -26 12 -33 5 -17 -22 -46 -31 -32 -3 5
-1 10 5 10 7 0 8 6 2 18 -5 9 -7 23 -5 30 3 6 0 12 -6 12 -7 0 -7 8 1 25 13
29 20 32 17 8z m-168 -4 c-14 -5 -31 -15 -38 -21 -9 -7 -13 -7 -13 1 0 12 35
30 60 30 8 0 4 -5 -9 -10z m-2631 -19 c0 -5 -4 -10 -10 -10 -5 0 -10 5 -10 10
0 6 5 10 10 10 6 0 10 -4 10 -10z m984 -30 c63 -38 94 -90 112 -186 9 -49 22
-119 30 -156 16 -77 17 -164 3 -228 -29 -131 -36 -186 -27 -204 6 -10 6 -22 1
-27 -14 -14 -15 6 -14 262 0 64 -4 131 -9 150 -6 19 -10 59 -10 90 0 101 -40
202 -107 266 -52 52 -40 71 21 33z m1896 -32 c0 -17 -28 -7 -33 11 -4 17 -2
18 14 8 10 -6 19 -15 19 -19z m-2590 3 c0 -9 -5 -23 -11 -31 -8 -12 -9 -10 -4
8 4 13 2 22 -4 22 -6 0 -11 4 -11 8 0 5 7 9 15 9 8 0 15 -7 15 -16z m288 -16
c-3 -3 -9 2 -12 12 -6 14 -5 15 5 6 7 -7 10 -15 7 -18z m2189 -5 c-1 -16 -8
-30 -14 -30 -15 0 -17 26 -3 35 6 4 8 11 5 16 -4 5 -2 9 4 9 6 0 9 -13 8 -30z
m-2257 -15 c1 11 4 14 7 8 2 -7 -3 -23 -11 -35 -16 -22 -16 -22 -15 12 0 29 2
31 9 15 l9 -20 1 20z m47 -7 c-3 -8 -6 -5 -6 6 -1 11 2 17 5 13 3 -3 4 -12 1
-19z m2323 -9 c0 -4 -11 -2 -24 4 -13 7 -22 15 -20 19 5 8 44 -13 44 -23z
m-2953 1 c-3 -11 -2 -18 3 -15 4 3 15 -30 24 -73 9 -42 25 -104 36 -137 14
-46 20 -96 22 -207 2 -82 6 -148 11 -148 4 0 7 -9 7 -19 0 -11 5 -23 10 -26 6
-4 7 -13 1 -23 -4 -9 -6 -23 -4 -29 3 -7 0 -13 -6 -13 -6 0 -12 -12 -12 -27
-2 -22 -3 -19 -9 12 l-7 40 -2 -40 c-2 -39 -3 -38 -22 28 -11 38 -26 76 -34
84 -8 8 -15 19 -15 24 0 6 -5 7 -12 3 -7 -4 -8 -3 -4 4 12 20 42 -4 59 -47 9
-22 21 -42 26 -45 5 -4 3 7 -6 24 -8 17 -12 38 -9 46 3 8 2 12 -4 9 -6 -3 -10
1 -10 10 0 8 -11 20 -24 26 -23 11 -24 14 -23 128 0 64 -4 145 -11 181 -6 36
-14 85 -16 110 -3 25 -8 63 -11 85 -4 30 -3 35 4 20 9 -18 10 -17 10 8 1 18 6
27 17 27 11 0 15 -6 11 -20z m365 -17 c-3 -16 -7 -22 -10 -15 -4 13 4 42 11
42 2 0 2 -12 -1 -27z m68 5 c0 -19 -2 -20 -10 -8 -13 19 -13 30 0 30 6 0 10
-10 10 -22z m-162 -13 c-3 -3 -9 2 -12 12 -6 14 -5 15 5 6 7 -7 10 -15 7 -18z
m-398 -31 c0 -15 9 -35 20 -44 25 -22 38 -94 31 -170 -5 -47 -9 -55 -28 -58
-25 -4 -33 -42 -9 -42 14 0 26 -29 26 -62 0 -10 -7 -18 -16 -18 -8 0 -12 -4
-9 -10 3 -5 -1 -10 -9 -10 -9 0 -16 4 -16 9 0 5 -8 12 -17 14 -10 3 0 6 22 7
22 1 35 4 29 6 -7 3 -10 14 -7 24 3 11 0 20 -6 20 -6 0 -11 -5 -11 -11 0 -6
-9 -9 -20 -6 -11 3 -20 1 -20 -5 0 -5 -5 -6 -11 -2 -8 4 -9 -1 -5 -17 3 -13 3
-18 0 -11 -3 6 -9 10 -13 7 -5 -2 -3 21 3 52 6 31 17 58 24 61 6 2 12 10 12
18 0 9 -4 12 -10 9 -13 -8 -13 1 1 27 8 15 8 19 0 13 -9 -5 -11 14 -10 69 2
42 7 76 12 76 5 0 6 12 3 26 -7 25 7 54 25 54 5 0 9 -12 9 -26z m380 -4 c0
-11 -4 -20 -9 -20 -5 0 -7 9 -4 20 3 11 7 20 9 20 2 0 4 -9 4 -20z m-203 -12
c-3 -8 -6 -5 -6 6 -1 11 2 17 5 13 3 -3 4 -12 1 -19z m600 0 c-3 -8 -6 -5 -6
6 -1 11 2 17 5 13 3 -3 4 -12 1 -19z m23 -50 c0 -13 -43 -6 -47 8 -2 7 6 10
22 7 14 -3 25 -10 25 -15z m-137 -8 c-3 -12 -8 -19 -11 -16 -5 6 5 36 12 36 2
0 2 -9 -1 -20z m-279 -5 c-4 -8 -8 -15 -10 -15 -2 0 -4 7 -4 15 0 8 4 15 10
15 5 0 7 -7 4 -15z m-117 -1 c-3 -3 -12 -4 -19 -1 -8 3 -5 6 6 6 11 1 17 -2
13 -5z m2743 -21 c0 -13 -14 -30 -30 -36 -13 -4 -12 -6 1 -6 9 -1 21 -7 27
-14 12 -14 50 -15 71 -3 18 12 26 -1 11 -19 -10 -12 -16 -13 -26 -4 -11 9 -14
8 -14 -5 0 -20 -9 -20 -34 -1 -23 17 -56 20 -56 5 0 -5 -4 -10 -9 -10 -12 0 3
65 20 84 15 16 39 21 39 9z m-2084 -31 c-4 -10 1 -27 9 -38 13 -16 16 -17 26
-4 9 13 10 13 6 0 -6 -20 10 -50 28 -50 7 0 17 -10 21 -22 4 -13 11 -26 16
-29 5 -3 12 -35 16 -70 8 -67 -4 -159 -31 -236 -8 -23 -12 -45 -9 -48 3 -3 20
-5 37 -5 29 0 37 -7 67 -58 l34 -57 -19 -90 c-25 -118 -74 -187 -140 -198 -48
-8 -67 0 -68 27 -1 11 -13 -26 -28 -84 -15 -58 -35 -122 -45 -142 -22 -46
-225 -258 -246 -258 -12 1 -12 3 3 14 9 7 17 21 17 30 0 10 5 14 10 11 6 -3
10 0 10 8 0 17 30 80 42 88 5 3 1 14 -9 24 -13 13 -14 20 -5 23 18 6 15 32 -7
51 -17 15 -18 24 -9 116 6 55 11 133 11 172 2 72 2 73 29 73 40 0 79 20 116
59 17 19 32 36 32 38 0 7 -9 1 -41 -27 -71 -63 -136 -64 -268 -6 -99 43 -121
65 -121 117 0 29 6 42 28 59 l27 22 6 -34 c7 -46 45 -95 97 -125 36 -22 52
-25 104 -21 59 4 62 6 109 59 27 30 49 62 49 71 0 9 3 24 6 33 6 14 8 14 25
-1 16 -15 19 -15 19 -2 0 9 -7 32 -16 53 -8 21 -13 44 -10 52 3 8 1 23 -4 33
-22 40 15 9 42 -36 44 -72 57 -39 30 76 -10 40 -49 127 -76 169 -5 8 -10 28
-12 44 -1 21 1 25 7 16 13 -20 27 4 35 61 8 56 10 60 35 60 15 0 19 -5 15 -18z
m-164 -38 c-6 -12 -9 -7 -9 16 0 23 3 28 9 16 5 -9 5 -23 0 -32z m2088 24 c0
-13 -32 -6 -37 9 -3 7 3 9 16 6 12 -3 21 -10 21 -15z m-2270 1 c0 -5 -4 -8 -9
-5 -5 4 -12 0 -14 -6 -3 -8 -6 -6 -6 5 -1 9 6 17 14 17 8 0 15 -5 15 -11z
m254 -54 c-7 -16 -24 -21 -24 -6 0 8 7 13 27 20 1 1 0 -6 -3 -14z m-264 -10
c0 -8 -4 -15 -8 -15 -5 0 -9 7 -9 15 0 8 4 15 9 15 4 0 8 -7 8 -15z m2436 3
c4 -6 -1 -17 -11 -25 -17 -12 -18 -13 -1 -13 9 0 15 -4 11 -10 -3 -6 -15 -5
-31 2 l-24 11 26 18 c18 12 22 18 12 22 -8 4 -9 6 -1 6 6 1 15 -4 19 -11z
m-70 -25 c-7 -7 -26 7 -26 19 0 6 6 6 15 -2 9 -7 13 -15 11 -17z m-2176 10 c0
-5 -5 -15 -10 -23 -8 -12 -10 -11 -10 8 0 12 5 22 10 22 6 0 10 -3 10 -7z
m503 -42 c1 -11 5 -21 11 -21 12 0 -2 -313 -16 -362 -14 -47 -32 -50 -24 -5
19 110 28 289 18 343 -7 31 -12 64 -12 73 0 23 21 -2 23 -28z m-443 9 c0 -11
-2 -20 -4 -20 -2 0 -6 9 -9 20 -3 11 -1 20 4 20 5 0 9 -9 9 -20z m2260 6 c0
-2 -7 -9 -15 -16 -13 -11 -14 -10 -9 4 5 14 24 23 24 12z m-3030 -36 c0 -5 -8
-10 -17 -10 -15 0 -16 2 -3 10 19 12 20 12 20 0z m530 -14 c0 -3 -4 -8 -10
-11 -5 -3 -10 -1 -10 4 0 6 5 11 10 11 6 0 10 -2 10 -4z m62 -38 c-9 -9 -12
-7 -12 12 0 19 3 21 12 12 9 -9 9 -15 0 -24z m-55 -3 c-1 -13 -7 -28 -11 -32
-5 -4 -6 2 -3 15 3 13 1 22 -6 22 -7 0 -5 5 3 10 21 13 21 13 17 -15z m-617
-75 c0 -13 -30 -20 -31 -7 0 9 -2 9 -6 0 -2 -7 -11 -13 -19 -13 -8 0 -14 6
-14 13 0 7 14 12 35 13 19 1 35 -2 35 -6z m277 -42 c-3 -8 -6 -5 -6 6 -1 11 2
17 5 13 3 -3 4 -12 1 -19z m-327 2 c-20 -13 -33 -13 -25 0 3 6 14 10 23 10 15
0 15 -2 2 -10z m90 0 c12 -8 11 -10 -7 -10 -12 0 -25 5 -28 10 -8 13 15 13 35
0z m725 -140 c3 -5 1 -10 -4 -10 -6 0 -11 5 -11 10 0 6 2 10 4 10 3 0 8 -4 11
-10z m-25 -44 c0 -3 -4 -8 -10 -11 -5 -3 -10 -1 -10 4 0 6 5 11 10 11 6 0 10
-2 10 -4z m-465 -26 c3 -5 1 -10 -4 -10 -6 0 -11 5 -11 10 0 6 2 10 4 10 3 0
8 -4 11 -10z m6 -45 c12 8 11 -2 -1 -25 -8 -16 -7 -18 4 -14 16 6 32 -29 21
-46 -4 -6 -24 -19 -46 -30 -21 -11 -39 -25 -39 -31 0 -6 -5 -7 -12 -3 -6 4 -8
3 -5 -3 4 -6 0 -25 -9 -42 -25 -50 -29 -104 -9 -124 9 -9 14 -20 12 -24 -3 -5
-2 -29 3 -55 4 -27 4 -48 0 -48 -7 0 -34 58 -40 85 -1 6 -9 19 -16 30 -8 11
-14 33 -15 50 -1 26 -2 25 -11 -12 -5 -25 -15 -43 -23 -43 -7 0 -21 -3 -31 -7
-13 -5 -16 -3 -12 9 4 10 1 15 -10 14 -10 0 -16 6 -16 16 1 10 -3 16 -8 15 -6
-1 -12 3 -15 10 -3 7 8 10 33 8 28 -3 42 2 59 20 13 12 27 20 31 16 4 -3 4 4
1 17 -3 12 -2 22 2 22 4 0 7 9 8 20 1 11 14 31 30 44 26 23 29 24 42 8 13 -16
13 -16 8 1 -8 22 2 49 16 40 6 -3 7 -1 3 6 -4 6 -11 9 -15 7 -4 -3 4 18 18 47
17 34 27 46 29 34 2 -9 8 -15 13 -12z m498 -44 c-13 -10 -26 -17 -29 -14 -3 3
1 8 8 10 6 3 12 17 12 31 0 25 1 25 17 10 15 -16 15 -18 -8 -37z m-585 -15
c-9 -14 -23 -26 -31 -26 -10 0 -6 10 14 33 31 37 43 32 17 -7z m-462 -25 c2
-22 0 -37 -4 -35 -8 5 -11 74 -4 74 2 0 6 -18 8 -39z m433 -31 c-10 -11 -22
-20 -28 -20 -5 0 1 9 14 20 31 25 37 25 14 0z m-236 -46 c10 -9 -35 -3 -49 6
-11 8 -7 9 15 4 17 -4 32 -8 34 -10z m143 4 c-9 -9 -15 -9 -24 0 -9 9 -7 12
12 12 19 0 21 -3 12 -12z m-94 -25 c-10 -2 -26 -2 -35 0 -10 3 -2 5 17 5 19 0
27 -2 18 -5z m42 -3 c0 -5 -7 -13 -16 -18 -8 -5 -16 -22 -16 -38 l-1 -30 -43
21 c-24 11 -43 23 -44 26 0 4 18 5 41 3 33 -3 40 -1 35 11 -3 9 0 15 9 15 8 0
15 5 15 10 0 6 5 10 10 10 6 0 10 -4 10 -10z m50 -40 c0 -11 -7 -20 -15 -20
-13 0 -13 3 -3 20 7 11 14 20 15 20 2 0 3 -9 3 -20z m245 -137 c-8 -31 -13
-39 -20 -31 -9 9 6 58 17 58 6 0 7 -11 3 -27z m-45 -21 c0 -21 5 -43 12 -50 6
-6 9 -14 5 -18 -12 -12 -27 8 -33 47 -6 38 -17 49 -28 30 -4 -5 -2 -11 3 -13
11 -4 24 -78 13 -78 -8 0 -19 29 -37 98 -6 20 -3 22 29 22 35 0 36 -1 36 -38z
m-136 3 c-4 -8 -11 -12 -16 -9 -6 4 -5 10 3 15 19 12 19 11 13 -6z m-14 -41
c0 -8 -4 -12 -10 -9 -5 3 -10 10 -10 16 0 5 5 9 10 9 6 0 10 -7 10 -16z m40 1
c0 -8 -2 -15 -4 -15 -2 0 -6 7 -10 15 -3 8 -1 15 4 15 6 0 10 -7 10 -15z m140
-79 c0 -19 -4 -38 -10 -41 -5 -3 -10 -2 -10 3 0 5 -3 24 -6 41 -5 24 -3 31 10
31 12 0 16 -9 16 -34z m-320 1 c0 -7 15 -22 33 -34 17 -13 26 -23 19 -23 -7 0
-10 -4 -7 -10 3 -5 -1 -10 -9 -10 -9 0 -15 6 -13 13 1 6 -3 11 -10 10 -6 -1
-16 12 -22 29 -14 39 -14 51 -1 43 6 -3 10 -12 10 -18z m280 -9 l-1 -33 -14
25 c-18 32 -18 40 0 40 10 0 15 -10 15 -32z m-37 0 c3 -12 2 -29 -3 -37 -8
-14 -10 -14 -11 -1 -1 8 -3 25 -4 38 -3 28 11 29 18 0z m106 -25 c1 -7 -3 -13
-9 -13 -5 0 -10 15 -9 33 0 27 2 29 9 12 5 -11 9 -26 9 -32z m152 5 c21 -12
39 -28 39 -35 0 -10 -5 -11 -18 -4 -10 5 -48 15 -85 21 -57 10 -67 15 -67 32
0 19 4 20 46 14 25 -3 64 -16 85 -28z m-300 -11 c-10 -9 -11 -8 -5 6 3 10 9
15 12 12 3 -3 0 -11 -7 -18z m-36 3 c3 -5 1 -10 -4 -10 -6 0 -11 5 -11 10 0 6
2 10 4 10 3 0 8 -4 11 -10z m-35 -39 c0 -5 -6 -12 -12 -14 -10 -4 -9 -8 2 -16
12 -9 11 -11 -7 -11 -13 0 -23 5 -23 10 0 6 -7 10 -15 10 -8 0 -15 4 -15 9 0
5 9 7 20 4 11 -3 20 0 20 6 0 6 7 11 15 11 8 0 15 -4 15 -9z m-52 -63 c3 -23
2 -23 -13 -3 -9 11 -20 19 -25 18 -5 -2 -14 6 -20 17 -10 18 -9 19 22 5 22 -9
34 -21 36 -37z m63 -11 c-8 -8 -11 -7 -11 4 0 9 3 19 7 23 4 4 9 2 11 -4 3 -7
-1 -17 -7 -23z m45 0 c8 3 14 0 14 -6 0 -6 -9 -11 -20 -11 -13 0 -20 6 -19 18
0 9 3 12 5 5 3 -7 12 -9 20 -6z m-56 -27 c0 -5 -9 -6 -20 -3 -11 3 -17 9 -15
14 7 10 35 1 35 -11z m177 -7 c19 -23 24 -26 32 -13 26 39 34 -56 12 -142 -10
-37 -16 -46 -29 -41 -10 4 -11 8 -4 11 16 5 -23 45 -48 49 -11 2 -20 -2 -20
-7 0 -6 6 -10 14 -10 7 0 19 -7 26 -15 10 -12 10 -15 -3 -15 -28 0 -47 12 -47
30 0 11 4 21 9 24 18 11 22 73 6 102 -14 26 -13 30 2 42 23 16 24 16 50 -15z
m-150 -48 c5 4 2 10 -4 12 -18 6 -16 23 2 23 10 0 15 -10 15 -29 0 -21 -6 -30
-22 -36 -14 -4 -18 -8 -10 -12 13 -5 17 -23 4 -23 -4 0 -20 12 -35 26 -21 19
-31 23 -41 15 -10 -8 -17 -7 -26 4 -11 13 -10 14 5 9 15 -6 17 -3 11 19 -4 16
-2 27 4 27 5 0 9 3 9 8 -4 25 5 22 41 -13 22 -21 43 -35 47 -30z m-191 -22
c-10 -10 -19 5 -10 18 6 11 8 11 12 0 2 -7 1 -15 -2 -18z m234 -3 c0 -5 -4
-10 -10 -10 -5 0 -10 5 -10 10 0 6 5 10 10 10 6 0 10 -4 10 -10z m798 -33 c2
-11 -3 -17 -16 -17 -26 0 -34 11 -20 27 14 17 32 12 36 -10z m-1013 3 c-3 -5
-11 -10 -16 -10 -6 0 -7 5 -4 10 3 6 11 10 16 10 6 0 7 -4 4 -10z m215 -30 c0
-11 0 -23 1 -27 1 -16 -18 -11 -46 13 -21 17 -24 22 -10 18 11 -4 24 -12 28
-18 5 -6 5 -1 2 12 -5 16 -2 22 9 22 9 0 16 -9 16 -20z m850 6 c0 -17 27 -29
36 -15 3 6 11 8 17 6 11 -3 13 -7 16 -42 1 -13 5 -14 23 -4 17 9 23 9 26 0 8
-23 32 -39 52 -34 14 4 20 0 20 -12 0 -13 6 -16 23 -11 16 4 27 -1 39 -16 9
-13 28 -22 44 -23 24 0 30 -5 34 -30 4 -24 7 -26 12 -12 4 9 12 17 17 17 14 0
23 -32 11 -44 -5 -5 -10 -20 -10 -33 0 -20 -4 -23 -27 -18 -16 2 -35 0 -43 -6
-13 -9 -12 -10 3 -5 9 3 17 1 17 -4 0 -13 -46 -24 -66 -16 -14 5 -14 9 -3 23
10 12 10 14 2 9 -9 -5 -13 0 -13 13 0 12 -5 20 -12 18 -21 -4 -14 38 7 45 11
4 2 5 -20 3 -47 -6 -79 9 -55 25 10 6 11 10 3 10 -7 0 -12 6 -10 13 2 13 -17
14 -45 2 -10 -4 -24 1 -36 13 -10 10 -31 22 -45 26 -20 5 -25 11 -20 24 5 14
3 15 -8 5 -20 -19 -29 -16 -29 12 0 22 3 25 25 19 15 -4 25 -2 25 5 0 6 -11
11 -25 11 -24 0 -34 18 -18 33 11 12 33 7 33 -7z m-350 -20 c0 -11 -19 -15
-25 -6 -3 5 1 10 9 10 9 0 16 -2 16 -4z m-473 -38 c-3 -8 -6 -5 -6 6 -1 11 2
17 5 13 3 -3 4 -12 1 -19z m443 4 c0 -27 -21 -44 -37 -31 -18 15 -16 29 3 29
8 0 12 5 9 10 -3 6 1 10 9 10 9 0 16 -8 16 -18z m-950 -1 c0 -6 -4 -12 -8 -15
-5 -3 -9 1 -9 9 0 8 4 15 9 15 4 0 8 -4 8 -9z m310 -12 c0 -5 -4 -9 -10 -9 -5
0 -10 7 -10 16 0 8 5 12 10 9 6 -3 10 -10 10 -16z m170 -51 c0 -13 -18 -9 -34
7 -8 8 -19 15 -24 15 -6 0 -12 6 -15 14 -4 9 7 7 34 -8 21 -11 39 -24 39 -28z
m90 42 c13 -9 13 -10 0 -10 -8 0 -22 5 -30 10 -13 9 -13 10 0 10 8 0 22 -5 30
-10z m-291 -14 c10 -12 8 -13 -8 -9 -12 3 -18 9 -15 14 7 12 10 11 23 -5z
m-389 -25 c0 -5 -7 -11 -15 -15 -15 -5 -20 5 -8 17 9 10 23 9 23 -2z m490 -1
c0 -5 -2 -10 -4 -10 -3 0 -8 5 -11 10 -3 6 -1 10 4 10 6 0 11 -4 11 -10z m578
-6 l23 -16 -32 -24 c-40 -29 -46 -30 -54 -3 -4 13 0 27 11 40 21 23 23 23 52
3z m-701 -16 c-3 -8 -6 -5 -6 6 -1 11 2 17 5 13 3 -3 4 -12 1 -19z m-265 -10
c-7 -7 -12 -8 -12 -2 0 14 12 26 19 19 2 -3 -1 -11 -7 -17z m858 -8 c0 -5 -5
-10 -11 -10 -5 0 -7 5 -4 10 3 6 8 10 11 10 2 0 4 -4 4 -10z m-1109 -43 c-15
-15 -30 1 -24 24 6 21 7 21 20 4 8 -12 9 -23 4 -28z m529 33 c0 -5 -2 -10 -4
-10 -3 0 -8 5 -11 10 -3 6 -1 10 4 10 6 0 11 -4 11 -10z m-455 -10 c3 -5 4
-10 1 -10 -2 0 -12 -3 -20 -6 -12 -5 -15 -2 -10 10 7 18 20 21 29 6z m137 -22
c-9 -9 -12 -7 -12 12 0 19 3 21 12 12 9 -9 9 -15 0 -24z m496 -3 c-3 -3 -9 2
-12 12 -6 14 -5 15 5 6 7 -7 10 -15 7 -18z m-127 -8 c-5 -5 -18 -7 -28 -3 -14
6 -15 9 -4 16 19 11 46 1 32 -13z m96 -14 c-11 -10 -26 8 -20 23 5 15 7 14 15
-1 6 -9 7 -19 5 -22z m58 28 c3 -5 1 -12 -5 -16 -5 -3 -10 1 -10 9 0 18 6 21
15 7z m375 -5 c9 -11 9 -19 0 -33 -7 -11 -10 -12 -7 -3 2 8 -2 23 -11 33 -8 9
-10 17 -5 17 6 0 16 -7 23 -14z m-966 -17 c-9 -15 -34 -10 -28 5 3 8 12 12 20
9 8 -3 11 -9 8 -14z m480 0 c-3 -5 0 -9 6 -9 6 0 8 -5 5 -10 -9 -14 -21 -5
-28 19 -3 14 -1 18 9 14 8 -3 11 -9 8 -14z m464 -14 c-2 -15 -7 -21 -16 -17
-10 3 -11 7 -2 12 9 5 9 9 1 14 -16 11 -13 26 4 20 8 -3 14 -16 13 -29z m106
15 c11 -11 0 -40 -14 -40 -7 0 -9 9 -5 23 5 17 4 19 -4 7 -7 -10 -11 -11 -11
-2 0 6 -4 12 -9 12 -4 0 -6 -11 -3 -25 3 -20 0 -25 -14 -24 -11 0 -14 3 -8 5
6 2 8 19 6 36 -5 30 -4 31 24 24 16 -4 33 -11 38 -16z m806 -30 c0 -13 -1 -13
-10 0 -5 8 -10 22 -10 30 0 13 1 13 10 0 5 -8 10 -22 10 -30z m-1440 10 c0 -5
-7 -7 -15 -4 -8 4 -15 8 -15 10 0 2 7 4 15 4 8 0 15 -4 15 -10z m686 -5 c9 -8
13 -19 10 -24 -4 -5 0 -12 6 -14 9 -4 9 -6 1 -6 -6 -1 -18 13 -27 29 -16 33
-13 38 10 15z m-1386 -15 c0 -11 -7 -20 -15 -20 -15 0 -21 21 -8 33 12 13 23
7 23 -13z m1920 -6 c0 -16 -35 -19 -45 -5 -6 11 26 32 37 25 5 -3 8 -12 8 -20z
m-1742 4 c-2 -6 -10 -14 -16 -16 -7 -2 -10 2 -6 12 7 18 28 22 22 4z m565 -8
c-3 -11 -9 -20 -14 -20 -10 0 -12 24 -2 33 13 13 21 7 16 -13z m89 12 c10 -4
14 -12 10 -18 -8 -13 -72 -6 -72 8 0 5 5 6 10 3 6 -3 10 -1 10 4 0 12 16 13
42 3z m532 -8 c3 -8 2 -12 -4 -9 -6 3 -10 10 -10 16 0 14 7 11 14 -7z m-684
-4 c0 -5 -2 -10 -4 -10 -3 0 -8 5 -11 10 -3 6 -1 10 4 10 6 0 11 -4 11 -10z
m486 -15 c-3 -9 -10 -14 -15 -11 -5 4 -12 1 -14 -4 -3 -6 -4 -5 -2 2 1 7 8 12
14 11 6 -2 11 5 11 14 0 9 3 14 6 10 4 -3 4 -13 0 -22z m-1238 -3 c2 -7 -3
-12 -12 -12 -9 0 -16 7 -16 16 0 17 22 14 28 -4z m377 8 c3 -5 1 -10 -4 -10
-6 0 -11 5 -11 10 0 6 2 10 4 10 3 0 8 -4 11 -10z m1951 -144 c24 -48 44 -95
44 -105 0 -9 9 -31 21 -50 31 -51 55 -160 69 -306 6 -71 20 -208 31 -304 10
-95 19 -238 19 -316 l0 -143 -53 -54 c-58 -58 -127 -104 -190 -125 -40 -14
-63 -9 -37 7 8 6 10 10 4 10 -6 0 -11 6 -11 13 0 6 -6 39 -13 72 -18 82 -14
174 15 381 14 98 23 179 20 182 -3 3 -5 1 -5 -5 0 -6 -6 -48 -14 -94 -8 -46
-18 -111 -22 -144 l-8 -60 -13 90 c-16 106 -16 99 -9 150 4 34 4 35 -3 10 -8
-28 -9 -26 -10 17 0 26 3 49 8 52 5 3 7 24 5 46 -2 24 1 44 9 50 76 62 71 51
69 131 -3 91 -5 103 -21 123 -18 22 -19 46 -6 206 7 80 11 149 10 155 -2 5 -6
46 -9 90 l-5 80 30 -35 c16 -19 50 -75 75 -124z m-2136 135 c0 -5 -7 -11 -15
-15 -15 -5 -20 5 -8 17 9 10 23 9 23 -2z m593 -7 c8 -8 -3 -34 -15 -34 -6 0
-6 6 1 14 9 11 9 15 -1 19 -7 3 -8 6 -2 6 6 1 13 -2 17 -5z m71 -4 c9 7 18 5
30 -9 19 -20 9 -34 -32 -44 -18 -4 -25 0 -31 16 -5 12 -3 26 3 33 6 7 13 8 14
3 3 -6 9 -6 16 1z m536 0 c0 -4 -7 -7 -15 -6 -23 3 -26 12 -5 13 11 1 20 -2
20 -7z m-1645 -18 c-3 -3 -11 0 -18 7 -9 10 -8 11 6 5 10 -3 15 -9 12 -12z
m570 8 c3 -5 -1 -10 -10 -10 -9 0 -13 5 -10 10 3 6 8 10 10 10 2 0 7 -4 10
-10z m405 0 c0 -5 -5 -10 -11 -10 -5 0 -7 5 -4 10 3 6 8 10 11 10 2 0 4 -4 4
-10z m724 2 c2 -4 -4 -9 -15 -9 -11 -1 -17 2 -14 8 7 11 22 12 29 1z m-1398
-39 c-11 -11 -17 4 -9 23 7 18 8 18 11 1 2 -10 1 -21 -2 -24z m944 25 c0 6 5
12 11 12 5 0 7 -4 4 -10 -3 -5 0 -7 8 -4 8 3 18 1 22 -5 4 -7 -7 -11 -29 -11
-20 0 -39 0 -43 -1 -4 0 -9 5 -12 12 -2 7 1 9 8 5 6 -4 11 -1 11 6 0 9 3 9 10
-2 6 -10 10 -11 10 -2z m244 -12 c-3 -9 -14 -16 -23 -15 -12 0 -12 2 -2 6 11
5 11 7 0 15 -11 8 -10 9 4 4 9 -3 17 0 17 6 0 6 2 9 5 6 3 -3 3 -13 -1 -22z
m-1311 -50 c23 -7 22 -36 -3 -36 -31 0 -72 22 -115 63 l-40 38 70 -30 c39 -16
78 -32 88 -35z m1215 46 c3 -11 0 -12 -16 -3 -10 6 -23 7 -27 3 -5 -4 -5 -1
-1 6 10 16 38 12 44 -6z m47 8 c3 -6 -1 -7 -9 -4 -18 7 -21 14 -7 14 6 0 13
-4 16 -10z m109 -10 c-22 -9 -29 -6 -20 9 4 6 14 7 23 4 15 -6 14 -7 -3 -13z
m92 8 c3 -4 -1 -5 -10 -4 -8 1 -18 5 -22 8 -3 4 1 5 10 4 8 -1 18 -5 22 -8z
m-42 -14 c3 -8 2 -12 -4 -9 -5 3 -17 -7 -27 -22 -10 -15 -37 -45 -60 -66 -23
-21 -45 -47 -48 -58 -5 -15 -10 -17 -24 -9 -10 5 -22 6 -26 2 -3 -4 -5 -1 -3
7 2 8 -8 20 -20 27 -36 18 -11 25 34 9 42 -14 68 -5 46 17 -9 9 -12 9 -12 0 0
-19 -28 -14 -43 8 -8 11 -16 19 -18 17 -2 -1 2 4 10 11 13 10 13 12 0 13 -8 0
-6 4 6 8 12 5 23 4 27 -3 5 -7 8 -6 8 4 1 23 30 -19 30 -43 0 -10 5 -15 10
-12 6 3 10 14 10 23 0 21 37 57 68 66 12 4 22 12 22 17 0 14 7 11 14 -7z m91
6 c3 -5 1 -10 -4 -10 -6 0 -11 5 -11 10 0 6 2 10 4 10 3 0 8 -4 11 -10z
m-1228 -16 c-3 -3 -12 -4 -19 -1 -8 3 -5 6 6 6 11 1 17 -2 13 -5z m543 2 c0
-2 -8 -10 -17 -17 -16 -13 -17 -12 -4 4 13 16 21 21 21 13z m30 -31 c0 -5 -5
-3 -10 5 -8 12 -10 12 -10 1 0 -8 -2 -12 -5 -9 -3 3 -2 13 1 22 5 14 9 15 15
4 5 -7 9 -17 9 -23z m27 20 c9 -24 -1 -27 -15 -5 -8 13 -8 20 -2 20 6 0 13 -7
17 -15z m223 3 c0 -4 -9 -8 -20 -8 -11 0 -23 0 -27 -1 -4 0 -9 4 -11 10 -2 5
11 9 27 9 17 -1 31 -5 31 -10z m356 -34 c-11 -68 -58 -146 -114 -191 -48 -39
-58 -43 -107 -43 -60 0 -72 14 -32 40 27 17 47 21 47 9 0 -5 11 -9 24 -9 25 0
39 20 30 43 -2 7 25 46 61 87 36 41 70 81 76 88 16 20 21 14 15 -24z m-540 -6
c-9 -12 -16 -20 -16 -16 0 3 -3 13 -6 21 -3 10 1 17 13 19 26 6 27 2 9 -24z
m54 28 c0 -2 -7 -6 -15 -10 -8 -3 -15 -1 -15 4 0 6 7 10 15 10 8 0 15 -2 15
-4z m185 -6 c3 -5 1 -10 -4 -10 -6 0 -11 5 -11 10 0 6 2 10 4 10 3 0 8 -4 11
-10z m365 0 c-8 -5 -22 -9 -30 -9 -10 0 -8 3 5 9 27 12 43 12 25 0z m-498 -34
c19 -28 9 -34 -43 -27 -5 1 -5 40 0 48 3 5 37 -11 43 -21z m-148 3 c3 -3 -8
-6 -25 -7 -17 -1 -28 1 -25 6 5 9 42 10 50 1z m211 -20 c-11 -17 -35 -9 -35
11 0 18 3 19 20 10 11 -6 18 -15 15 -21z m97 12 c-4 -10 -7 -11 -10 -3 -2 7
-9 9 -14 6 -6 -4 -8 -3 -5 3 10 16 36 11 29 -6z m328 8 c0 -5 5 -7 10 -4 6 3
10 2 10 -3 0 -6 -7 -12 -15 -16 -9 -3 -15 0 -15 8 0 8 -6 17 -12 19 -8 3 -6 6
5 6 9 1 17 -4 17 -10z m41 -66 c-20 -118 -22 -136 -27 -208 -3 -38 -9 -104
-12 -145 -4 -41 -4 -174 0 -294 4 -121 5 -223 2 -227 -2 -4 -6 -80 -9 -169 -5
-162 -10 -194 -26 -169 -6 10 -9 8 -9 -8 0 -13 4 -23 8 -23 9 0 32 -178 32
-245 0 -23 -4 -45 -9 -50 -5 -6 -11 -23 -13 -38 -5 -45 -20 -36 -34 21 -19 72
-25 139 -30 334 -4 149 -3 171 13 195 17 26 17 27 0 20 -11 -4 -16 -3 -12 3
11 18 15 280 5 280 -12 0 -12 -3 -10 -114 2 -77 0 -88 -14 -83 -9 4 -16 3 -16
-2 0 -5 -10 -12 -22 -16 -21 -7 -20 -8 10 -12 l34 -4 -6 -87 c-12 -189 -13
-252 -5 -252 5 0 9 -26 9 -57 0 -32 7 -104 15 -160 8 -57 12 -110 8 -120 -5
-11 -3 -14 6 -8 10 6 11 3 2 -14 -7 -12 -9 -36 -5 -56 5 -28 3 -35 -10 -35
-11 0 -16 8 -15 28 0 15 -3 38 -7 51 -5 17 -4 22 4 17 8 -5 10 -1 5 9 -10 27
-24 -5 -17 -40 3 -20 2 -25 -4 -17 -6 9 -20 11 -46 7 -36 -7 -46 -19 -23 -28
9 -4 9 -6 -1 -6 -7 -1 -18 10 -24 24 -11 26 -19 30 -32 18 -3 -4 -14 -8 -24
-9 -9 -2 -36 -6 -59 -10 -30 -4 -43 -3 -43 5 0 6 18 11 45 11 48 0 48 0 39 50
l-7 32 -13 -23 c-10 -19 -13 -20 -14 -6 0 9 -7 17 -15 17 -12 0 -14 9 -11 36
5 37 16 59 16 31 0 -9 3 -18 8 -20 4 -3 6 18 5 46 l-2 52 10 -52 c11 -57 21
-65 73 -56 35 6 36 6 36 53 0 26 6 52 13 58 8 7 11 41 9 114 -1 56 -2 140 -3
186 0 45 -4 82 -8 82 -8 0 -25 72 -24 97 0 7 -3 11 -7 8 -4 -3 -11 2 -14 11
-3 8 -2 13 3 10 5 -3 9 13 9 37 2 53 18 141 32 167 15 29 1 46 -16 21 -8 -11
-14 -24 -12 -28 1 -4 -2 -30 -7 -58 -8 -44 -9 -47 -17 -25 -5 17 -6 11 -3 -20
4 -34 3 -41 -6 -30 -9 12 -10 11 -6 -7 6 -27 1 -29 -19 -8 -9 8 -22 15 -30 15
-17 0 -18 -22 -2 -38 9 -9 7 -13 -7 -18 -12 -5 -22 -1 -31 10 -11 16 -13 16
-17 -6 -3 -13 -3 9 0 47 6 74 18 109 34 100 5 -4 9 1 9 10 0 9 -4 14 -9 11 -5
-3 -12 1 -15 10 -4 10 -2 13 6 8 7 -5 9 0 6 14 -4 12 -2 20 3 16 5 -3 9 -12 9
-20 0 -17 16 -19 24 -1 3 6 3 -4 0 -23 -6 -31 -5 -33 10 -21 9 7 16 10 17 5 0
-5 4 0 9 11 8 18 9 18 10 -5 2 -21 3 -19 11 10 4 19 6 42 2 50 -3 8 -7 22 -7
30 -1 8 -9 16 -20 18 -10 2 -16 0 -13 -5 3 -5 -3 -10 -14 -10 -10 -1 -19 2
-19 8 0 5 7 9 15 9 8 0 15 7 15 15 0 8 7 15 15 15 12 0 15 13 15 59 0 33 -4
61 -9 63 -5 2 -6 21 -2 44 7 39 6 41 -13 36 -20 -5 -20 -5 -3 12 11 11 17 33
17 62 0 24 5 44 10 44 15 0 12 21 -5 41 -15 15 -14 17 12 24 46 11 107 42 127
64 10 11 23 18 28 15 4 -3 8 -2 7 3 -4 15 13 43 22 37 5 -3 6 2 3 10 -3 9 -2
16 4 16 14 0 56 73 78 137 10 29 20 50 22 48 2 -2 -1 -34 -7 -72z m-586 49
c33 -61 37 -73 30 -80 -4 -4 -10 -1 -13 7 -6 17 -36 47 -53 53 -16 5 -5 38 13
38 7 0 18 -8 23 -18z m155 4 c0 -3 -4 -8 -10 -11 -5 -3 -10 -1 -10 4 0 6 5 11
10 11 6 0 10 -2 10 -4z m260 1 c0 -2 -9 -12 -20 -22 -24 -21 -27 -14 -4 9 15
15 24 20 24 13z m107 -11 c-4 -10 0 -14 14 -11 21 4 22 3 13 -19 -8 -20 -28
-21 -43 -2 -12 15 -5 46 11 46 6 0 8 -6 5 -14z m-683 -12 c9 -22 8 -26 -6 -22
-13 5 -20 38 -8 38 4 0 11 -7 14 -16z m58 -3 c-4 -10 -7 -11 -10 -3 -2 7 -9 9
-14 6 -6 -4 -8 -3 -5 3 10 16 36 11 29 -6z m58 -38 c0 -13 3 -13 18 -2 11 9
10 5 -4 -11 -12 -14 -19 -32 -16 -40 2 -8 -9 3 -27 24 -28 35 -30 41 -16 56 8
9 14 19 13 21 -2 3 5 -4 15 -14 9 -11 17 -26 17 -34z m226 29 c-3 -18 -27 -24
-38 -8 -7 11 22 37 33 30 4 -2 6 -12 5 -22z m-124 -34 c-9 -9 -12 -7 -12 12 0
19 3 21 12 12 9 -9 9 -15 0 -24z m54 7 c-10 -8 -23 -12 -27 -9 -17 10 -9 20
19 22 25 1 26 1 8 -13z m244 5 c0 -5 -5 -10 -11 -10 -5 0 -7 5 -4 10 3 6 8 10
11 10 2 0 4 -4 4 -10z m-470 -15 c7 -8 9 -15 5 -15 -5 0 0 -9 10 -20 10 -11
13 -20 7 -20 -6 0 -16 13 -23 29 -9 20 -16 26 -21 18 -5 -8 -8 -6 -8 6 0 21
13 22 30 2z m617 1 c-4 -10 -1 -13 9 -9 8 3 14 -1 14 -10 0 -11 -7 -15 -22
-12 -16 4 -19 2 -10 -7 17 -17 -6 -43 -24 -27 -8 6 -14 17 -14 23 0 6 5 4 11
-4 9 -12 10 -11 6 8 -3 12 -1 22 4 22 4 0 6 7 3 15 -4 10 0 15 11 15 11 0 15
-5 12 -14z m-367 -6 c0 -6 -7 -13 -15 -16 -8 -3 -17 -15 -21 -26 -3 -11 -8
-17 -11 -15 -7 8 26 67 37 67 6 0 10 -5 10 -10z m99 -17 l23 -15 -28 -14 c-35
-19 -45 -33 -39 -59 3 -11 2 -14 -1 -7 -3 6 -14 12 -24 12 -20 0 -72 39 -52
40 6 0 12 6 12 13 0 7 9 23 21 36 22 23 43 22 88 -6z m111 9 c0 -13 -12 -22
-22 -16 -10 6 -1 24 13 24 5 0 9 -4 9 -8z m-260 -6 c0 -2 -7 -9 -15 -16 -12
-10 -15 -10 -15 4 0 9 7 16 15 16 8 0 15 -2 15 -4z m-54 -49 c-1 -12 2 -28 7
-34 7 -9 5 -13 -6 -13 -10 0 -15 7 -12 19 2 11 -3 22 -12 25 -11 4 -13 2 -9
-9 7 -20 3 -19 -20 6 -10 11 -14 20 -9 19 19 -4 50 2 37 7 -6 2 -9 9 -6 14 10
16 31 -9 30 -34z m254 33 c0 -5 -2 -10 -4 -10 -3 0 -8 5 -11 10 -3 6 -1 10 4
10 6 0 11 -4 11 -10z m44 -32 c-4 -6 -10 -5 -15 3 -14 22 -10 33 6 19 8 -7 12
-17 9 -22z m-274 -8 c0 -11 -2 -20 -4 -20 -2 0 -6 9 -9 20 -3 11 -1 20 4 20 5
0 9 -9 9 -20z m-155 0 c3 -6 -1 -7 -9 -4 -18 7 -21 14 -7 14 6 0 13 -4 16 -10z
m50 -10 c3 -5 1 -10 -4 -10 -6 0 -11 5 -11 10 0 6 2 10 4 10 3 0 8 -4 11 -10z
m149 -6 c9 -3 16 -15 16 -26 0 -10 -5 -16 -10 -13 -6 4 -8 10 -5 15 3 5 0 12
-6 16 -7 4 -9 3 -6 -2 3 -6 2 -16 -4 -24 -6 -11 -9 -8 -9 13 0 29 1 30 24 21z
m362 -5 c3 -6 -3 -21 -15 -33 l-22 -21 10 26 c5 15 7 30 4 33 -4 3 -1 6 5 6 6
0 14 -5 18 -11z m-1191 -39 c-15 -16 -31 -27 -36 -25 -11 7 33 55 50 55 10 0
5 -11 -14 -30z m40 10 c-4 -11 -3 -19 2 -18 4 1 19 -2 32 -6 18 -6 20 -10 10
-17 -8 -4 -14 -12 -14 -16 -1 -4 -9 -24 -20 -43 -10 -19 -18 -44 -17 -55 2
-17 1 -17 -7 -5 -9 12 -11 10 -11 -9 0 -20 -3 -22 -12 -13 -10 10 -10 17 0 32
10 17 10 21 -3 26 -9 4 -25 -2 -35 -11 -27 -25 -35 -14 -10 13 26 28 25 32 -5
32 -22 0 -24 2 -13 19 7 11 22 22 34 25 12 3 33 19 46 35 28 36 31 37 23 11z
m670 0 c0 -7 -6 -14 -13 -16 -7 -1 -8 0 -2 3 16 8 11 26 -6 19 -9 -3 -12 -2
-9 5 9 13 30 6 30 -11z m160 10 c3 -5 1 -10 -4 -10 -6 0 -11 5 -11 10 0 6 2
10 4 10 3 0 8 -4 11 -10z m259 -32 c19 -26 11 -41 -16 -32 -14 4 -18 2 -14 -5
5 -7 1 -8 -10 -4 -13 5 -15 3 -9 -8 5 -10 5 -11 -3 -4 -19 19 -18 50 3 62 29
16 32 15 49 -9z m-398 -3 c-4 -11 0 -15 12 -13 9 2 16 -2 15 -8 -1 -7 6 -10
17 -7 11 3 20 1 20 -5 0 -5 29 -20 65 -33 55 -19 64 -26 63 -45 -1 -12 -6 -20
-10 -18 -5 3 -6 9 -3 14 5 8 -27 20 -56 20 -23 0 -13 -45 18 -78 13 -14 26
-37 30 -51 3 -14 10 -32 16 -38 6 -9 6 -13 -2 -13 -6 0 -11 6 -11 13 0 8 -4 7
-11 -3 -8 -12 -9 -9 -4 10 l7 25 -17 -22 c-18 -26 -40 -31 -31 -7 3 8 2 12 -4
9 -9 -6 -14 11 -13 43 1 10 -7 12 -24 9 -21 -4 -24 -2 -19 18 4 17 0 25 -20
33 -14 7 -35 12 -47 12 -48 0 -49 17 -2 24 35 6 45 11 41 22 -3 8 -1 14 5 14
17 0 -14 27 -41 36 -14 4 -36 7 -50 6 -20 -2 -17 1 13 14 20 9 37 20 37 25 0
5 3 9 6 9 3 0 3 -7 0 -15z m134 -4 c0 -21 -22 -33 -45 -25 -8 4 -15 14 -15 23
1 14 2 14 11 -1 5 -10 15 -18 21 -18 6 0 5 7 -3 17 -12 15 -12 16 4 10 9 -3
17 -2 17 3 0 6 2 10 5 10 3 0 5 -9 5 -19z m96 -22 c0 -13 -5 -18 -16 -14 -11
4 -10 1 3 -9 9 -7 17 -16 17 -20 0 -9 -61 3 -73 13 -12 12 -19 64 -7 56 5 -3
10 -2 10 3 0 7 12 6 33 0 22 -7 33 -16 33 -29z m28 9 c-6 -10 -4 -10 7 0 7 6
19 12 26 12 17 0 17 -30 1 -31 -7 0 -2 -5 12 -11 l25 -11 -33 -10 c-38 -12
-40 -11 -48 31 -4 22 -3 32 5 32 7 0 9 -6 5 -12z m-776 -18 c-15 -23 -35 -26
-35 -5 0 8 4 12 8 9 4 -2 10 0 14 6 3 5 10 10 16 10 5 0 4 -9 -3 -20z m449
-102 c-3 -8 -6 -5 -6 6 -1 11 2 17 5 13 3 -3 4 -12 1 -19z m303 -28 c0 -5 -4
-10 -10 -10 -5 0 -10 5 -10 10 0 6 5 10 10 10 6 0 10 -4 10 -10z m-970 -10 c0
-5 -2 -10 -4 -10 -2 0 -12 -3 -22 -7 -16 -6 -17 -5 -4 10 17 19 30 22 30 7z
m937 -6 c-3 -3 -12 -4 -19 -1 -8 3 -5 6 6 6 11 1 17 -2 13 -5z m40 -20 c-3 -3
-12 -4 -19 -1 -8 3 -5 6 6 6 11 1 17 -2 13 -5z m-157 -13 c0 -6 -4 -13 -10
-16 -5 -3 -10 1 -10 9 0 9 5 16 10 16 6 0 10 -4 10 -9z m150 -25 c0 -2 -7 -7
-16 -10 -8 -3 -12 -2 -9 4 6 10 25 14 25 6z m-243 -38 c-3 -8 -6 -5 -6 6 -1
11 2 17 5 13 3 -3 4 -12 1 -19z m-980 -100 c-3 -8 -6 -5 -6 6 -1 11 2 17 5 13
3 -3 4 -12 1 -19z m2098 -38 c3 -5 1 -10 -4 -10 -6 0 -11 5 -11 10 0 6 2 10 4
10 3 0 8 -4 11 -10z m-893 -53 c-24 -11 -38 -5 -28 11 3 6 16 8 28 4 l22 -5
-22 -10z m-48 -145 c4 -10 2 -61 -4 -113 -5 -52 -10 -97 -10 -102 0 -4 -12
-12 -27 -18 -26 -10 -27 -12 -11 -23 17 -12 17 -14 -3 -32 -20 -18 -20 -18
-14 11 5 23 4 26 -4 15 -8 -11 -10 -7 -6 20 l5 35 -13 -34 c-9 -25 -16 -31
-21 -22 -5 7 -4 16 2 20 6 3 13 18 17 33 l7 28 19 -23 18 -22 1 40 c1 22 4 34
7 27 2 -6 9 -10 14 -6 16 10 10 24 -11 24 -15 0 -20 -7 -20 -27 0 -18 -3 -24
-8 -15 -5 7 -4 38 2 69 7 40 12 51 17 37 7 -18 8 -18 8 1 1 44 -16 46 -29 3
-12 -41 -13 -42 -21 -19 -7 19 -4 32 13 58 13 18 29 31 36 28 6 -2 12 2 12 10
0 21 18 19 24 -3z m118 -166 c3 5 3 3 1 -4 -1 -8 -3 -20 -3 -27 0 -8 -12 -15
-27 -17 -25 -3 -26 -4 -10 -20 21 -21 22 -38 2 -38 -8 0 -15 7 -15 15 0 8 -7
15 -16 15 -13 0 -15 -9 -10 -57 3 -32 3 -52 0 -45 -3 6 -10 10 -15 6 -5 -3 -9
0 -9 5 0 6 -7 11 -15 11 -18 0 -20 39 -2 46 7 2 13 20 13 40 0 42 16 54 62 47
32 -6 34 -5 27 18 -4 16 -3 20 3 10 5 -7 12 -9 14 -5z m-212 -26 c0 -5 -5 -10
-11 -10 -5 0 -7 5 -4 10 3 6 8 10 11 10 2 0 4 -4 4 -10z m245 -31 c11 -16 1
-19 -13 -3 -7 8 -8 14 -3 14 5 0 13 -5 16 -11z m2332 -2 c12 -7 31 -25 43 -42
l22 -30 -26 28 c-14 15 -40 34 -58 42 -18 8 -26 14 -18 14 8 0 25 -5 37 -12z
m-1360 -29 c-3 -7 -5 -2 -5 12 0 14 2 19 5 13 2 -7 2 -19 0 -25z m-995 -54
c-8 -15 -10 -15 -15 0 -5 12 -3 15 5 10 8 -5 9 -2 5 10 -4 10 -4 23 0 29 12
18 16 -29 5 -49z m975 14 c-3 -8 -6 -5 -6 6 -1 11 2 17 5 13 3 -3 4 -12 1 -19z
m-1017 -43 c0 -5 -5 -3 -10 5 -5 8 -10 20 -10 25 0 6 5 3 10 -5 5 -8 10 -19
10 -25z m-145 -2 c-5 -10 -8 -26 -9 -35 0 -10 -3 -14 -7 -10 -10 10 1 62 13
62 6 0 7 -8 3 -17z m202 -15 c-3 -8 -6 -5 -6 6 -1 11 2 17 5 13 3 -3 4 -12 1
-19z m-27 -3 c0 -8 -2 -15 -4 -15 -2 0 -6 7 -10 15 -3 8 -1 15 4 15 6 0 10 -7
10 -15z m-1126 -11 c3 -8 2 -12 -4 -9 -6 3 -10 10 -10 16 0 14 7 11 14 -7z
m1043 -46 c-3 -7 -5 -2 -5 12 0 14 2 19 5 13 2 -7 2 -19 0 -25z m20 -10 c-3
-8 -6 -5 -6 6 -1 11 2 17 5 13 3 -3 4 -12 1 -19z m30 -90 c-3 -7 -5 -2 -5 12
0 14 2 19 5 13 2 -7 2 -19 0 -25z m-57 -23 c0 -8 -4 -15 -10 -15 -5 0 -7 7 -4
15 4 8 8 15 10 15 2 0 4 -7 4 -15z m17 -27 c-3 -8 -6 -5 -6 6 -1 11 2 17 5 13
3 -3 4 -12 1 -19z m2247 -17 c-2 -3 8 -17 22 -32 22 -23 30 -26 47 -18 12 7
17 7 13 1 -3 -5 5 -20 18 -33 22 -21 26 -56 5 -43 -5 3 -7 10 -4 15 4 5 -4 9
-17 8 -13 0 -17 -3 -10 -6 6 -2 12 -8 12 -13 0 -7 -46 -5 -112 4 -29 4 -29 12
-1 14 42 3 40 12 -3 13 -21 1 -45 1 -52 0 -16 -3 -11 18 19 87 l18 43 25 -18
c13 -10 22 -20 20 -22z m444 16 c-13 -13 -25 -20 -27 -15 -1 5 5 16 15 23 30
23 37 17 12 -8z m-414 -20 c1 -8 8 -23 16 -33 9 -13 6 -11 -10 3 -13 12 -24
32 -25 43 -2 23 15 12 19 -13z m-2344 3 c0 -5 -4 -10 -10 -10 -5 0 -10 5 -10
10 0 6 5 10 10 10 6 0 10 -4 10 -10z m100 -10 c0 -5 -4 -10 -10 -10 -5 0 -10
5 -10 10 0 6 5 10 10 10 6 0 10 -4 10 -10z m2285 -18 c-3 -3 -11 0 -18 7 -9
10 -8 11 6 5 10 -3 15 -9 12 -12z m-2413 -27 c-2 -14 -6 -25 -8 -25 -2 0 -4
11 -4 25 0 14 4 25 9 25 4 0 6 -11 3 -25z m-55 -32 c-3 -10 -5 -2 -5 17 0 19
2 27 5 18 2 -10 2 -26 0 -35z m13 -43 l-11 -25 6 25 c2 14 5 34 6 45 2 19 2
19 6 0 2 -12 -1 -32 -7 -45z m-9 -39 c6 10 9 11 9 1 0 -7 4 -11 8 -8 5 3 8
-20 8 -52 -1 -46 -4 -57 -18 -60 -14 -3 -18 3 -18 22 0 14 4 26 9 26 5 0 11
11 13 24 4 19 1 23 -11 18 -9 -3 -20 -10 -24 -16 -5 -6 -6 0 -3 14 3 14 7 39
7 55 2 29 2 29 6 -4 3 -26 7 -31 14 -20z m2626 42 c-2 -5 8 -19 21 -33 l25
-25 -17 35 c-16 34 -16 34 1 11 10 -14 18 -34 18 -45 1 -18 -5 -21 -46 -21
l-47 0 19 27 c22 30 24 42 7 32 -9 -5 -9 -2 1 9 14 17 25 23 18 10z m-3593
-57 c-7 -29 -27 -30 -32 -3 -2 10 3 17 12 17 9 0 16 5 16 12 0 6 2 9 5 6 4 -3
3 -18 -1 -32z m3547 11 c-10 -9 -11 -8 -5 6 3 10 9 15 12 12 3 -3 0 -11 -7
-18z m-2471 -42 c-8 -27 -18 -45 -27 -45 -12 0 -14 -11 -11 -50 2 -28 -1 -49
-7 -50 -6 0 -10 36 -11 85 -1 73 2 87 17 95 24 13 27 13 32 -7 3 -13 5 -11 6
6 0 13 4 21 7 18 4 -4 1 -27 -6 -52z m-260 41 c0 -3 -4 -8 -10 -11 -5 -3 -10
-1 -10 4 0 6 5 11 10 11 6 0 10 -2 10 -4z m347 -18 c-3 -8 -6 -5 -6 6 -1 11 2
17 5 13 3 -3 4 -12 1 -19z m-323 -14 c3 -8 2 -12 -4 -9 -6 3 -10 10 -10 16 0
14 7 11 14 -7z m606 -56 c0 -33 -4 -48 -9 -43 -9 9 -4 95 5 95 2 0 4 -23 4
-52z m-1445 33 c10 -17 -11 -21 -31 -6 -18 14 -18 14 3 15 12 0 24 -4 28 -9z
m3830 -8 c-2 -10 -4 -20 -4 -22 -1 -2 -7 2 -14 8 -8 6 -17 8 -20 4 -4 -3 -7
-1 -7 6 0 7 7 11 15 8 8 -4 17 -2 20 3 9 15 14 12 10 -7z m-3835 -23 c12 -8
11 -10 -7 -10 -12 0 -25 5 -28 10 -8 13 15 13 35 0z m1420 -27 c-1 -24 -2 -26
-11 -10 -5 9 -7 22 -4 27 10 17 15 11 15 -17z m-351 -33 c0 -10 -3 -8 -9 5
-12 27 -12 43 0 25 5 -8 9 -22 9 -30z m-252 -22 c-3 -8 -6 -5 -6 6 -1 11 2 17
5 13 3 -3 4 -12 1 -19z m182 5 c0 -10 -4 -27 -9 -38 -7 -16 -9 -13 -9 18 -1
20 4 37 9 37 6 0 10 -8 9 -17z m2836 -13 c3 -5 1 -10 -4 -10 -6 0 -11 5 -11
10 0 6 2 10 4 10 3 0 8 -4 11 -10z"/>
<path d="M1996 4024 c-4 -9 -4 -19 -1 -22 2 -3 7 3 11 12 4 9 4 19 1 22 -2 3
-7 -3 -11 -12z"/>
<path d="M2071 4194 c0 -11 3 -14 6 -6 3 7 2 16 -1 19 -3 4 -6 -2 -5 -13z"/>
<path d="M2458 3840 c13 -11 21 -24 18 -29 -6 -10 23 -25 32 -16 3 3 0 5 -6 5
-7 0 -12 14 -12 31 0 27 -2 30 -15 19 -10 -9 -15 -9 -15 -1 0 6 -6 11 -12 11
-7 -1 -3 -9 10 -20z"/>
<path d="M2782 3380 c0 -14 2 -19 5 -12 2 6 2 18 0 25 -3 6 -5 1 -5 -13z"/>
<path d="M2787 3323 c-4 -3 -7 -11 -7 -17 0 -6 5 -5 12 2 6 6 9 14 7 17 -3 3
-9 2 -12 -2z"/>
<path d="M1600 3590 c0 -11 5 -20 10 -20 6 0 10 9 10 20 0 11 -4 20 -10 20 -5
0 -10 -9 -10 -20z"/>
<path d="M1623 3564 c-15 -15 -17 -44 -4 -44 17 0 33 29 24 43 -7 13 -10 13
-20 1z"/>
<path d="M1470 3593 c0 -5 4 -15 10 -23 11 -18 25 -7 17 15 -6 15 -27 21 -27
8z"/>
<path d="M1461 3544 c0 -11 3 -14 6 -6 3 7 2 16 -1 19 -3 4 -6 -2 -5 -13z"/>
<path d="M1437 3464 c3 -8 10 -13 15 -12 16 6 14 21 -4 24 -11 1 -15 -3 -11
-12z"/>
<path d="M2454 3096 c-9 -15 -14 -29 -11 -32 3 -3 13 6 23 20 9 15 14 29 11
32 -3 3 -13 -6 -23 -20z"/>
<path d="M2475 3044 c-16 -19 -32 -37 -35 -41 -10 -14 35 22 50 41 15 18 18
18 49 2 17 -10 34 -23 37 -30 8 -22 -75 -236 -92 -236 -16 0 -42 23 -44 40 -2
8 -2 38 -1 67 1 45 4 52 21 50 22 -1 22 -2 22 -62 0 -39 0 -38 10 13 6 29 9
54 7 56 -2 2 -20 6 -39 8 l-35 3 -3 -86 -3 -85 38 -12 c42 -13 43 -12 77 68
40 99 65 172 60 184 -4 11 -75 57 -85 56 -2 -1 -17 -17 -34 -36z"/>
<path d="M2130 2340 c0 -5 5 -10 10 -10 6 0 10 5 10 10 0 6 -4 10 -10 10 -5 0
-10 -4 -10 -10z"/>
<path d="M1710 2960 c-8 -5 -12 -11 -10 -14 3 -2 14 2 24 10 22 15 10 19 -14
4z"/>
<path d="M2514 2165 c11 -8 27 -15 35 -15 10 1 7 6 -9 15 -33 19 -50 18 -26 0z"/>
<path d="M2570 2129 c0 -5 5 -7 10 -4 6 3 10 8 10 11 0 2 -4 4 -10 4 -5 0 -10
-5 -10 -11z"/>
<path d="M2730 2069 c0 -5 5 -7 10 -4 6 3 10 8 10 11 0 2 -4 4 -10 4 -5 0 -10
-5 -10 -11z"/>
<path d="M2770 2029 c0 -5 5 -7 10 -4 6 3 10 8 10 11 0 2 -4 4 -10 4 -5 0 -10
-5 -10 -11z"/>
<path d="M2755 1980 c3 -5 8 -10 11 -10 2 0 4 5 4 10 0 6 -5 10 -11 10 -5 0
-7 -4 -4 -10z"/>
<path d="M2095 2099 c-4 -6 -5 -12 -2 -15 2 -3 7 2 10 11 7 17 1 20 -8 4z"/>
<path d="M2060 2080 c0 -5 5 -10 11 -10 5 0 7 5 4 10 -3 6 -8 10 -11 10 -2 0
-4 -4 -4 -10z"/>
<path d="M2970 1521 c0 -6 4 -13 10 -16 6 -3 7 1 4 9 -7 18 -14 21 -14 7z"/>
<path d="M2991 1474 c0 -11 3 -14 6 -6 3 7 2 16 -1 19 -3 4 -6 -2 -5 -13z"/>
<path d="M3011 1384 c0 -11 3 -14 6 -6 3 7 2 16 -1 19 -3 4 -6 -2 -5 -13z"/>
<path d="M3090 1375 c0 -5 5 -17 10 -25 5 -8 10 -10 10 -5 0 6 -5 17 -10 25
-5 8 -10 11 -10 5z"/>
<path d="M3023 1330 c4 -14 16 -86 27 -160 26 -168 70 -398 82 -425 7 -17 8
-16 4 5 -3 14 -21 119 -41 235 -49 283 -63 357 -71 364 -4 3 -4 -5 -1 -19z"/>
<path d="M3001 1034 c0 -11 3 -14 6 -6 3 7 2 16 -1 19 -3 4 -6 -2 -5 -13z"/>
<path d="M3012 980 c0 -19 2 -27 5 -17 2 9 2 25 0 35 -3 9 -5 1 -5 -18z"/>
<path d="M3022 910 c0 -14 2 -19 5 -12 2 6 2 18 0 25 -3 6 -5 1 -5 -13z"/>
<path d="M3032 855 c0 -16 2 -22 5 -12 2 9 2 23 0 30 -3 6 -5 -1 -5 -18z"/>
<path d="M3042 795 c0 -16 2 -22 5 -12 2 9 2 23 0 30 -3 6 -5 -1 -5 -18z"/>
<path d="M3141 694 c0 -11 3 -14 6 -6 3 7 2 16 -1 19 -3 4 -6 -2 -5 -13z"/>
<path d="M1540 1909 c0 -5 5 -7 10 -4 6 3 10 8 10 11 0 2 -4 4 -10 4 -5 0 -10
-5 -10 -11z"/>
<path d="M1847 1799 c7 -7 15 -10 18 -7 3 3 -2 9 -12 12 -14 6 -15 5 -6 -5z"/>
<path d="M2090 1358 c-3 -26 -1 -43 3 -39 5 5 7 26 5 47 l-3 39 -5 -47z"/>
<path d="M2025 1060 c3 -5 12 -10 20 -10 8 0 17 5 20 10 4 6 -5 10 -20 10 -15
0 -24 -4 -20 -10z"/>
<path d="M2076 985 c4 -8 8 -15 10 -15 2 0 4 7 4 15 0 8 -4 15 -10 15 -5 0 -7
-7 -4 -15z"/>
<path d="M1818 913 c6 -2 18 -2 25 0 6 3 1 5 -13 5 -14 0 -19 -2 -12 -5z"/>
<path d="M2085 871 c-3 -5 -1 -12 5 -16 5 -3 10 1 10 9 0 18 -6 21 -15 7z"/>
<path d="M2050 850 c0 -5 5 -10 10 -10 6 0 10 -9 10 -20 0 -11 5 -20 10 -20
18 0 10 39 -10 50 -14 7 -20 7 -20 0z"/>
<path d="M2047 654 c-3 -17 1 -33 10 -42 13 -13 14 -10 7 24 -9 49 -10 51 -17
18z"/>
<path d="M2070 673 c0 -5 5 -15 10 -23 8 -12 10 -11 10 8 0 12 -4 22 -10 22
-5 0 -10 -3 -10 -7z"/>
<path d="M2063 525 c0 -33 2 -45 4 -27 2 18 2 45 0 60 -2 15 -4 0 -4 -33z"/>
<path d="M2042 500 c0 -14 2 -19 5 -12 2 6 2 18 0 25 -3 6 -5 1 -5 -13z"/>
<path d="M2091 424 c0 -11 3 -14 6 -6 3 7 2 16 -1 19 -3 4 -6 -2 -5 -13z"/>
<path d="M2062 380 c0 -14 2 -19 5 -12 2 6 2 18 0 25 -3 6 -5 1 -5 -13z"/>
<path d="M1877 138 c4 -7 8 -16 9 -20 1 -5 2 -11 3 -14 2 -9 31 24 31 35 0 6
-12 11 -26 11 -18 0 -23 -4 -17 -12z"/>
<path d="M1497 1783 c-12 -11 -8 -40 7 -52 12 -10 14 -7 11 20 -5 35 -9 42
-18 32z"/>
<path d="M871 1574 c0 -11 3 -14 6 -6 3 7 2 16 -1 19 -3 4 -6 -2 -5 -13z"/>
<path d="M870 1535 c7 -9 15 -13 17 -11 7 7 -7 26 -19 26 -6 0 -6 -6 2 -15z"/>
<path d="M1929 1588 c-11 -21 -11 -22 4 -9 14 11 20 11 34 0 15 -13 15 -12 4
9 -6 12 -16 22 -21 22 -5 0 -15 -10 -21 -22z"/>
<path d="M1550 1576 c0 -2 7 -7 16 -10 8 -3 12 -2 9 4 -6 10 -25 14 -25 6z"/>
<path d="M1723 925 c0 -22 2 -30 4 -17 2 12 2 30 0 40 -3 9 -5 -1 -4 -23z"/>
<path d="M1651 134 c0 -11 3 -14 6 -6 3 7 2 16 -1 19 -3 4 -6 -2 -5 -13z"/>
<path d="M1701 54 c0 -11 3 -14 6 -6 3 7 2 16 -1 19 -3 4 -6 -2 -5 -13z"/>
<path d="M4182 4584 c10 -10 23 -14 37 -9 34 10 24 25 -16 25 -34 0 -36 -1
-21 -16z"/>
<path d="M4490 4593 c8 -3 34 -13 57 -24 54 -24 53 -24 53 6 0 24 -2 25 -62
24 -35 0 -56 -3 -48 -6z"/>
<path d="M4490 4570 c0 -5 5 -10 11 -10 5 0 7 5 4 10 -3 6 -8 10 -11 10 -2 0
-4 -4 -4 -10z"/>
<path d="M4545 4541 l20 -8 -20 -6 -20 -6 20 2 c24 3 23 21 -2 24 -15 2 -14 1
2 -6z"/>
<path d="M4480 4519 c0 -5 5 -7 10 -4 6 3 10 8 10 11 0 2 -4 4 -10 4 -5 0 -10
-5 -10 -11z"/>
<path d="M4208 4513 c13 -3 21 -10 19 -16 -2 -7 -11 -11 -21 -9 -9 2 -16 -4
-16 -13 0 -12 6 -15 19 -10 14 4 21 0 24 -12 3 -10 5 1 6 25 1 40 0 42 -26 41
-25 -2 -25 -2 -5 -6z"/>
<path d="M4316 4493 c-8 -8 -14 -10 -47 -12 -12 0 -19 -6 -16 -13 2 -7 16 -12
31 -10 16 2 26 -2 27 -10 0 -7 5 0 10 16 9 32 7 41 -5 29z"/>
<path d="M4587 4473 c-11 -10 -8 -43 3 -43 6 0 10 11 10 25 0 26 -2 29 -13 18z"/>
<path d="M3945 4450 c-3 -5 -20 -10 -37 -10 l-31 0 22 -24 c16 -17 19 -25 10
-28 -8 -3 -9 -7 -3 -11 5 -3 16 -2 24 3 11 7 11 12 2 23 -13 15 -3 29 28 39
10 3 11 6 3 11 -7 4 -14 3 -18 -3z"/>
<path d="M4074 4439 c-3 -6 -2 -15 3 -20 5 -5 9 -1 9 11 0 23 -2 24 -12 9z"/>
<path d="M4020 4425 c0 -8 2 -15 4 -15 2 0 6 7 10 15 3 8 1 15 -4 15 -6 0 -10
-7 -10 -15z"/>
<path d="M4065 4370 c-3 -5 -1 -10 4 -10 6 0 11 5 11 10 0 6 -2 10 -4 10 -3 0
-8 -4 -11 -10z"/>
<path d="M3970 4366 c0 -2 7 -6 15 -10 8 -3 15 -1 15 4 0 6 -7 10 -15 10 -8 0
-15 -2 -15 -4z"/>
<path d="M4586 4361 c-4 -7 -5 -15 -2 -18 9 -9 19 4 14 18 -4 11 -6 11 -12 0z"/>
<path d="M4273 4292 c-10 -16 -8 -19 16 -19 26 0 27 2 12 19 -8 10 -16 18 -16
18 0 0 -5 -8 -12 -18z"/>
<path d="M4591 4284 c0 -11 3 -14 6 -6 3 7 2 16 -1 19 -3 4 -6 -2 -5 -13z"/>
<path d="M4231 4264 c0 -11 3 -14 6 -6 3 7 2 16 -1 19 -3 4 -6 -2 -5 -13z"/>
<path d="M4259 4219 c12 -13 26 -19 36 -15 9 3 13 2 10 -4 -3 -6 -1 -10 5 -10
6 0 8 -5 4 -12 -4 -6 -3 -8 4 -5 16 11 2 47 -19 47 -10 0 -21 5 -24 10 -3 6
-13 10 -21 10 -11 0 -10 -5 5 -21z"/>
<path d="M4510 4210 c0 -5 5 -10 10 -10 6 0 10 5 10 10 0 6 -4 10 -10 10 -5 0
-10 -4 -10 -10z"/>
<path d="M4348 4193 c7 -3 16 -2 19 1 4 3 -2 6 -13 5 -11 0 -14 -3 -6 -6z"/>
<path d="M4268 4183 c7 -3 16 -2 19 1 4 3 -2 6 -13 5 -11 0 -14 -3 -6 -6z"/>
<path d="M4545 360 c10 -11 20 -20 23 -20 3 0 -3 9 -13 20 -10 11 -20 20 -23
20 -3 0 3 -9 13 -20z"/>
<path d="M4478 313 c6 -2 18 -2 25 0 6 3 1 5 -13 5 -14 0 -19 -2 -12 -5z"/>
<path d="M4425 142 c3 -3 -1 -12 -7 -21 -8 -10 -4 -9 10 3 26 23 26 23 7 23
-8 0 -13 -3 -10 -5z"/>
<path d="M4311 107 c2 -1 15 -11 29 -22 l25 -20 -19 23 c-11 12 -24 22 -29 22
-6 0 -8 -1 -6 -3z"/>
<path d="M4483 90 c-13 -5 -23 -11 -23 -14 0 -7 40 6 46 15 6 10 6 10 -23 -1z"/>
<path d="M4095 40 c10 -11 20 -20 23 -20 3 0 -3 9 -13 20 -10 11 -20 20 -23
20 -3 0 3 -9 13 -20z"/>
<path d="M4410 35 c-7 -9 -11 -17 -9 -20 3 -2 10 5 17 15 14 24 10 26 -8 5z"/>
<path d="M4168 3 c6 -2 18 -2 25 0 6 3 1 5 -13 5 -14 0 -19 -2 -12 -5z"/>
<path d="M4348 3 c7 -3 16 -2 19 1 4 3 -2 6 -13 5 -11 0 -14 -3 -6 -6z"/>
</g>
</svg>
